<mxfile host="app.diagrams.net" agent="Mozilla/5.0 (Windows NT 10.0; Win64; x64) AppleWebKit/537.36 (KHTML, like Gecko) Chrome/126.0.0.0 Safari/537.36 OPR/112.0.0.0" version="24.7.10">
  <diagram name="Страница — 1" id="9oe0HTS77SPDpaYTJAAq">
    <mxGraphModel dx="1532" dy="869" grid="1" gridSize="10" guides="1" tooltips="1" connect="1" arrows="1" fold="1" page="1" pageScale="1" pageWidth="827" pageHeight="1169" math="0" shadow="0">
      <root>
        <mxCell id="0" />
        <mxCell id="1" parent="0" />
        <mxCell id="9EJrfdcdq9UjvzJNWAgp-131" value="" style="rounded=0;whiteSpace=wrap;html=1;fillColor=#f5f5f5;fontColor=#333333;strokeColor=#666666;" vertex="1" parent="1">
          <mxGeometry x="205" y="30" width="625" height="860" as="geometry" />
        </mxCell>
        <mxCell id="9EJrfdcdq9UjvzJNWAgp-1" value="" style="rounded=0;whiteSpace=wrap;html=1;fillColor=#ffe6cc;strokeColor=#d79b00;" vertex="1" parent="1">
          <mxGeometry x="220" y="180" width="240" height="150" as="geometry" />
        </mxCell>
        <mxCell id="9EJrfdcdq9UjvzJNWAgp-7" value="Sampling" style="rounded=0;whiteSpace=wrap;html=1;fillColor=#f8cecc;strokeColor=#b85450;" vertex="1" parent="1">
          <mxGeometry x="289.25" y="210" width="101.5" height="30" as="geometry" />
        </mxCell>
        <mxCell id="9EJrfdcdq9UjvzJNWAgp-8" value="" style="rounded=0;whiteSpace=wrap;html=1;fillColor=#ffe6cc;strokeColor=#d79b00;" vertex="1" parent="1">
          <mxGeometry x="220" y="360" width="240" height="220" as="geometry" />
        </mxCell>
        <mxCell id="9EJrfdcdq9UjvzJNWAgp-9" value="" style="rounded=0;whiteSpace=wrap;html=1;fillColor=#ffe6cc;strokeColor=#d79b00;" vertex="1" parent="1">
          <mxGeometry x="220" y="610" width="240" height="220" as="geometry" />
        </mxCell>
        <mxCell id="9EJrfdcdq9UjvzJNWAgp-12" value="" style="endArrow=blockThin;html=1;rounded=0;entryX=0.5;entryY=0;entryDx=0;entryDy=0;exitX=0.5;exitY=1;exitDx=0;exitDy=0;strokeWidth=0.5;endFill=1;" edge="1" parent="1" source="9EJrfdcdq9UjvzJNWAgp-57" target="9EJrfdcdq9UjvzJNWAgp-7">
          <mxGeometry width="50" height="50" relative="1" as="geometry">
            <mxPoint x="340" y="180" as="sourcePoint" />
            <mxPoint x="390.75" y="130" as="targetPoint" />
          </mxGeometry>
        </mxCell>
        <mxCell id="9EJrfdcdq9UjvzJNWAgp-14" value="Transform" style="rounded=0;whiteSpace=wrap;html=1;fillColor=#f8cecc;strokeColor=#b85450;" vertex="1" parent="1">
          <mxGeometry x="289.25" y="270" width="101.5" height="30" as="geometry" />
        </mxCell>
        <mxCell id="9EJrfdcdq9UjvzJNWAgp-16" value="&lt;font style=&quot;font-size: 11px;&quot;&gt;Video Processing block&lt;/font&gt;" style="text;html=1;align=center;verticalAlign=middle;whiteSpace=wrap;rounded=0;" vertex="1" parent="1">
          <mxGeometry x="220" y="160" width="120" height="20" as="geometry" />
        </mxCell>
        <mxCell id="9EJrfdcdq9UjvzJNWAgp-18" value="" style="endArrow=blockThin;html=1;rounded=0;entryX=0.5;entryY=0;entryDx=0;entryDy=0;exitX=0.5;exitY=1;exitDx=0;exitDy=0;strokeWidth=0.5;endFill=1;" edge="1" parent="1">
          <mxGeometry width="50" height="50" relative="1" as="geometry">
            <mxPoint x="339.66" y="240" as="sourcePoint" />
            <mxPoint x="339.66" y="270" as="targetPoint" />
          </mxGeometry>
        </mxCell>
        <mxCell id="9EJrfdcdq9UjvzJNWAgp-19" value="" style="endArrow=blockThin;html=1;rounded=0;exitX=0.5;exitY=1;exitDx=0;exitDy=0;strokeWidth=0.5;endFill=1;" edge="1" parent="1">
          <mxGeometry width="50" height="50" relative="1" as="geometry">
            <mxPoint x="339.66" y="300" as="sourcePoint" />
            <mxPoint x="340" y="390" as="targetPoint" />
          </mxGeometry>
        </mxCell>
        <mxCell id="9EJrfdcdq9UjvzJNWAgp-20" value="&lt;font style=&quot;font-size: 11px;&quot;&gt;Object retrieving block&lt;/font&gt;" style="text;html=1;align=center;verticalAlign=middle;whiteSpace=wrap;rounded=0;" vertex="1" parent="1">
          <mxGeometry x="220" y="340" width="120" height="20" as="geometry" />
        </mxCell>
        <mxCell id="9EJrfdcdq9UjvzJNWAgp-22" value="Object detection" style="rounded=0;whiteSpace=wrap;html=1;fillColor=#dae8fc;strokeColor=#6c8ebf;" vertex="1" parent="1">
          <mxGeometry x="289.25" y="390" width="101.5" height="30" as="geometry" />
        </mxCell>
        <mxCell id="9EJrfdcdq9UjvzJNWAgp-24" value="Object retrieval" style="rounded=0;whiteSpace=wrap;html=1;fillColor=#f8cecc;strokeColor=#b85450;" vertex="1" parent="1">
          <mxGeometry x="289.25" y="450" width="101.5" height="30" as="geometry" />
        </mxCell>
        <mxCell id="9EJrfdcdq9UjvzJNWAgp-26" value="" style="endArrow=blockThin;html=1;rounded=0;entryX=0.5;entryY=0;entryDx=0;entryDy=0;exitX=0.5;exitY=1;exitDx=0;exitDy=0;strokeWidth=0.5;endFill=1;" edge="1" parent="1">
          <mxGeometry width="50" height="50" relative="1" as="geometry">
            <mxPoint x="339.31" y="420" as="sourcePoint" />
            <mxPoint x="339.31" y="450" as="targetPoint" />
          </mxGeometry>
        </mxCell>
        <mxCell id="9EJrfdcdq9UjvzJNWAgp-27" value="" style="endArrow=blockThin;html=1;rounded=0;entryX=0.5;entryY=0;entryDx=0;entryDy=0;exitX=0.5;exitY=1;exitDx=0;exitDy=0;strokeWidth=0.5;endFill=1;" edge="1" parent="1">
          <mxGeometry width="50" height="50" relative="1" as="geometry">
            <mxPoint x="339.31" y="480" as="sourcePoint" />
            <mxPoint x="339.31" y="510" as="targetPoint" />
          </mxGeometry>
        </mxCell>
        <mxCell id="9EJrfdcdq9UjvzJNWAgp-28" value="Events and entities generation" style="rounded=0;whiteSpace=wrap;html=1;fillColor=#f8cecc;strokeColor=#b85450;" vertex="1" parent="1">
          <mxGeometry x="284.62" y="510" width="110.75" height="40" as="geometry" />
        </mxCell>
        <mxCell id="9EJrfdcdq9UjvzJNWAgp-30" value="" style="endArrow=blockThin;html=1;rounded=0;exitX=0.5;exitY=1;exitDx=0;exitDy=0;strokeWidth=0.5;endFill=1;dashed=1;entryX=0;entryY=0.5;entryDx=0;entryDy=0;entryPerimeter=0;" edge="1" parent="1" target="9EJrfdcdq9UjvzJNWAgp-51">
          <mxGeometry width="50" height="50" relative="1" as="geometry">
            <mxPoint x="395.38" y="529.6600000000001" as="sourcePoint" />
            <mxPoint x="510" y="530" as="targetPoint" />
          </mxGeometry>
        </mxCell>
        <mxCell id="9EJrfdcdq9UjvzJNWAgp-32" value="&lt;font style=&quot;font-size: 11px;&quot;&gt;Searching block&lt;/font&gt;" style="text;html=1;align=center;verticalAlign=middle;whiteSpace=wrap;rounded=0;" vertex="1" parent="1">
          <mxGeometry x="220" y="590" width="90" height="20" as="geometry" />
        </mxCell>
        <mxCell id="9EJrfdcdq9UjvzJNWAgp-33" value="" style="endArrow=blockThin;html=1;rounded=0;exitX=0.5;exitY=1;exitDx=0;exitDy=0;strokeWidth=0.5;endFill=1;entryX=0.5;entryY=1;entryDx=0;entryDy=0;" edge="1" parent="1" target="9EJrfdcdq9UjvzJNWAgp-34">
          <mxGeometry width="50" height="50" relative="1" as="geometry">
            <mxPoint x="339.31" y="550" as="sourcePoint" />
            <mxPoint x="339.65" y="640" as="targetPoint" />
          </mxGeometry>
        </mxCell>
        <mxCell id="9EJrfdcdq9UjvzJNWAgp-34" value="" style="shape=trapezoid;perimeter=trapezoidPerimeter;whiteSpace=wrap;html=1;fixedSize=1;rotation=-180;fillColor=#dae8fc;strokeColor=#6c8ebf;" vertex="1" parent="1">
          <mxGeometry x="280" y="630" width="120" height="50" as="geometry" />
        </mxCell>
        <mxCell id="9EJrfdcdq9UjvzJNWAgp-37" value="Visual embeddings extracting&amp;nbsp;" style="text;html=1;align=center;verticalAlign=middle;whiteSpace=wrap;rounded=0;" vertex="1" parent="1">
          <mxGeometry x="280" y="640" width="120" height="30" as="geometry" />
        </mxCell>
        <mxCell id="9EJrfdcdq9UjvzJNWAgp-38" value="" style="endArrow=blockThin;html=1;rounded=0;entryX=0.5;entryY=0;entryDx=0;entryDy=0;exitX=0.5;exitY=1;exitDx=0;exitDy=0;strokeWidth=0.5;endFill=1;" edge="1" parent="1">
          <mxGeometry width="50" height="50" relative="1" as="geometry">
            <mxPoint x="339.62" y="680" as="sourcePoint" />
            <mxPoint x="339.62" y="710" as="targetPoint" />
            <Array as="points">
              <mxPoint x="339.31" y="710" />
            </Array>
          </mxGeometry>
        </mxCell>
        <mxCell id="9EJrfdcdq9UjvzJNWAgp-40" value="Bucket selection" style="rounded=0;whiteSpace=wrap;html=1;fillColor=#f8cecc;strokeColor=#b85450;" vertex="1" parent="1">
          <mxGeometry x="289.25" y="710" width="101.5" height="30" as="geometry" />
        </mxCell>
        <mxCell id="9EJrfdcdq9UjvzJNWAgp-45" value="Insertion into a Data Structure" style="rounded=0;whiteSpace=wrap;html=1;fillColor=#f8cecc;strokeColor=#b85450;" vertex="1" parent="1">
          <mxGeometry x="289.24" y="760" width="101.5" height="40" as="geometry" />
        </mxCell>
        <mxCell id="9EJrfdcdq9UjvzJNWAgp-49" value="" style="endArrow=blockThin;html=1;rounded=0;entryX=0.5;entryY=0;entryDx=0;entryDy=0;strokeWidth=0.5;endFill=1;" edge="1" parent="1">
          <mxGeometry width="50" height="50" relative="1" as="geometry">
            <mxPoint x="340" y="740" as="sourcePoint" />
            <mxPoint x="340.31" y="760" as="targetPoint" />
            <Array as="points">
              <mxPoint x="340" y="760" />
            </Array>
          </mxGeometry>
        </mxCell>
        <mxCell id="9EJrfdcdq9UjvzJNWAgp-50" value="" style="endArrow=blockThin;html=1;rounded=0;exitX=0.5;exitY=1;exitDx=0;exitDy=0;strokeWidth=0.5;endFill=1;dashed=1;entryX=0.5;entryY=1;entryDx=0;entryDy=0;" edge="1" parent="1" target="9EJrfdcdq9UjvzJNWAgp-55">
          <mxGeometry width="50" height="50" relative="1" as="geometry">
            <mxPoint x="390.75" y="779.6600000000001" as="sourcePoint" />
            <mxPoint x="570" y="580" as="targetPoint" />
            <Array as="points">
              <mxPoint x="533" y="780" />
            </Array>
          </mxGeometry>
        </mxCell>
        <mxCell id="9EJrfdcdq9UjvzJNWAgp-51" value="Database" style="shape=cylinder3;whiteSpace=wrap;html=1;boundedLbl=1;backgroundOutline=1;size=15;" vertex="1" parent="1">
          <mxGeometry x="503" y="490" width="60" height="80" as="geometry" />
        </mxCell>
        <mxCell id="9EJrfdcdq9UjvzJNWAgp-55" value="Data structre" style="rounded=1;whiteSpace=wrap;html=1;" vertex="1" parent="1">
          <mxGeometry x="473" y="650" width="120" height="60" as="geometry" />
        </mxCell>
        <mxCell id="9EJrfdcdq9UjvzJNWAgp-56" value="" style="endArrow=blockThin;startArrow=blockThin;html=1;rounded=0;entryX=0.5;entryY=1;entryDx=0;entryDy=0;entryPerimeter=0;exitX=0.5;exitY=0;exitDx=0;exitDy=0;endFill=1;startFill=1;strokeWidth=0.5;" edge="1" parent="1" source="9EJrfdcdq9UjvzJNWAgp-55" target="9EJrfdcdq9UjvzJNWAgp-51">
          <mxGeometry width="50" height="50" relative="1" as="geometry">
            <mxPoint x="580" y="640" as="sourcePoint" />
            <mxPoint x="630" y="590" as="targetPoint" />
          </mxGeometry>
        </mxCell>
        <mxCell id="9EJrfdcdq9UjvzJNWAgp-57" value="Input" style="shape=parallelogram;perimeter=parallelogramPerimeter;whiteSpace=wrap;html=1;fixedSize=1;" vertex="1" parent="1">
          <mxGeometry x="280" y="90" width="120" height="60" as="geometry" />
        </mxCell>
        <mxCell id="9EJrfdcdq9UjvzJNWAgp-77" value="" style="rounded=0;whiteSpace=wrap;html=1;fillColor=#fff2cc;strokeColor=#d6b656;" vertex="1" parent="1">
          <mxGeometry x="603" y="446.25" width="220" height="383.75" as="geometry" />
        </mxCell>
        <mxCell id="9EJrfdcdq9UjvzJNWAgp-78" value="Data structure&amp;nbsp;" style="text;html=1;align=center;verticalAlign=middle;whiteSpace=wrap;rounded=0;" vertex="1" parent="1">
          <mxGeometry x="603" y="426.25" width="90" height="20" as="geometry" />
        </mxCell>
        <mxCell id="9EJrfdcdq9UjvzJNWAgp-79" value="Insert&amp;nbsp;" style="rounded=1;whiteSpace=wrap;html=1;fillColor=#f8cecc;strokeColor=#b85450;" vertex="1" parent="1">
          <mxGeometry x="633" y="540" width="160" height="55" as="geometry" />
        </mxCell>
        <mxCell id="9EJrfdcdq9UjvzJNWAgp-80" value="Search Nearest Neighbors" style="rounded=1;whiteSpace=wrap;html=1;fillColor=#f8cecc;strokeColor=#b85450;" vertex="1" parent="1">
          <mxGeometry x="633" y="471.25" width="160" height="55" as="geometry" />
        </mxCell>
        <mxCell id="9EJrfdcdq9UjvzJNWAgp-84" value="" style="endArrow=none;html=1;rounded=0;" edge="1" parent="1">
          <mxGeometry width="50" height="50" relative="1" as="geometry">
            <mxPoint x="593" y="679.33" as="sourcePoint" />
            <mxPoint x="603" y="679" as="targetPoint" />
          </mxGeometry>
        </mxCell>
        <mxCell id="9EJrfdcdq9UjvzJNWAgp-85" value="(vector)" style="text;html=1;align=center;verticalAlign=middle;whiteSpace=wrap;rounded=0;" vertex="1" parent="1">
          <mxGeometry x="330.74" y="675" width="60" height="30" as="geometry" />
        </mxCell>
        <mxCell id="9EJrfdcdq9UjvzJNWAgp-86" value="Load model" style="rounded=1;whiteSpace=wrap;html=1;fillColor=#dae8fc;strokeColor=#6c8ebf;" vertex="1" parent="1">
          <mxGeometry x="633" y="610" width="160" height="55" as="geometry" />
        </mxCell>
        <mxCell id="9EJrfdcdq9UjvzJNWAgp-87" value="Encode image" style="rounded=1;whiteSpace=wrap;html=1;fillColor=#dae8fc;strokeColor=#6c8ebf;" vertex="1" parent="1">
          <mxGeometry x="633" y="680" width="160" height="55" as="geometry" />
        </mxCell>
        <mxCell id="9EJrfdcdq9UjvzJNWAgp-88" value="Encode text" style="rounded=1;whiteSpace=wrap;html=1;fillColor=#dae8fc;strokeColor=#6c8ebf;" vertex="1" parent="1">
          <mxGeometry x="633" y="750" width="160" height="55" as="geometry" />
        </mxCell>
        <mxCell id="9EJrfdcdq9UjvzJNWAgp-95" value="" style="rounded=0;whiteSpace=wrap;html=1;fillColor=#ffe6cc;strokeColor=#d79b00;" vertex="1" parent="1">
          <mxGeometry x="550" y="180" width="233" height="200" as="geometry" />
        </mxCell>
        <mxCell id="9EJrfdcdq9UjvzJNWAgp-96" value="Asynchronized data capture" style="text;html=1;align=center;verticalAlign=middle;whiteSpace=wrap;rounded=0;" vertex="1" parent="1">
          <mxGeometry x="550" y="150" width="80" height="30" as="geometry" />
        </mxCell>
        <mxCell id="9EJrfdcdq9UjvzJNWAgp-98" value="source 1" style="shape=parallelogram;perimeter=parallelogramPerimeter;whiteSpace=wrap;html=1;fixedSize=1;fillColor=#f8cecc;strokeColor=#b85450;" vertex="1" parent="1">
          <mxGeometry x="558" y="200" width="90" height="30" as="geometry" />
        </mxCell>
        <mxCell id="9EJrfdcdq9UjvzJNWAgp-99" value="source K" style="shape=parallelogram;perimeter=parallelogramPerimeter;whiteSpace=wrap;html=1;fixedSize=1;fillColor=#f8cecc;strokeColor=#b85450;" vertex="1" parent="1">
          <mxGeometry x="688" y="200" width="90" height="30" as="geometry" />
        </mxCell>
        <mxCell id="9EJrfdcdq9UjvzJNWAgp-100" value="" style="endArrow=none;dashed=1;html=1;dashPattern=1 3;strokeWidth=2;rounded=0;endSize=0;startSize=2;jumpSize=1;" edge="1" parent="1">
          <mxGeometry width="50" height="50" relative="1" as="geometry">
            <mxPoint x="658" y="214.86" as="sourcePoint" />
            <mxPoint x="678" y="214.86" as="targetPoint" />
          </mxGeometry>
        </mxCell>
        <mxCell id="9EJrfdcdq9UjvzJNWAgp-102" value="" style="endArrow=blockThin;html=1;rounded=0;endFill=1;strokeWidth=0.5;" edge="1" parent="1" target="9EJrfdcdq9UjvzJNWAgp-103">
          <mxGeometry width="50" height="50" relative="1" as="geometry">
            <mxPoint x="588.0000000000002" y="230" as="sourcePoint" />
            <mxPoint x="638" y="270" as="targetPoint" />
            <Array as="points">
              <mxPoint x="588" y="325" />
            </Array>
          </mxGeometry>
        </mxCell>
        <mxCell id="9EJrfdcdq9UjvzJNWAgp-103" value="Video fragments" style="rounded=0;whiteSpace=wrap;html=1;fillColor=#f8cecc;strokeColor=#b85450;" vertex="1" parent="1">
          <mxGeometry x="633" y="297.5" width="60" height="55" as="geometry" />
        </mxCell>
        <mxCell id="9EJrfdcdq9UjvzJNWAgp-104" value="" style="endArrow=blockThin;html=1;rounded=0;entryX=1;entryY=0.5;entryDx=0;entryDy=0;endFill=1;strokeWidth=0.5;" edge="1" parent="1" target="9EJrfdcdq9UjvzJNWAgp-103">
          <mxGeometry width="50" height="50" relative="1" as="geometry">
            <mxPoint x="738.0000000000002" y="230" as="sourcePoint" />
            <mxPoint x="783" y="325" as="targetPoint" />
            <Array as="points">
              <mxPoint x="738" y="325" />
            </Array>
          </mxGeometry>
        </mxCell>
        <mxCell id="9EJrfdcdq9UjvzJNWAgp-105" value="" style="endArrow=blockThin;html=1;rounded=0;entryX=0.5;entryY=0;entryDx=0;entryDy=0;dashed=1;dashPattern=1 1;endFill=1;" edge="1" parent="1" target="9EJrfdcdq9UjvzJNWAgp-103">
          <mxGeometry width="50" height="50" relative="1" as="geometry">
            <mxPoint x="663" y="230" as="sourcePoint" />
            <mxPoint x="658" y="250" as="targetPoint" />
          </mxGeometry>
        </mxCell>
        <mxCell id="9EJrfdcdq9UjvzJNWAgp-116" value="" style="endArrow=classic;html=1;rounded=0;exitX=0.251;exitY=1;exitDx=0;exitDy=0;exitPerimeter=0;strokeWidth=0.5;" edge="1" parent="1">
          <mxGeometry width="50" height="50" relative="1" as="geometry">
            <mxPoint x="632.997" y="150.00000000000006" as="sourcePoint" />
            <mxPoint x="633.06" y="200" as="targetPoint" />
          </mxGeometry>
        </mxCell>
        <mxCell id="9EJrfdcdq9UjvzJNWAgp-117" value="Streaming service.&lt;div&gt;/&lt;/div&gt;&lt;div&gt;Storage of videos.&lt;/div&gt;" style="rounded=0;whiteSpace=wrap;html=1;" vertex="1" parent="1">
          <mxGeometry x="573" y="90" width="187" height="60" as="geometry" />
        </mxCell>
        <mxCell id="9EJrfdcdq9UjvzJNWAgp-119" value="" style="endArrow=classic;html=1;rounded=0;strokeWidth=0.5;" edge="1" parent="1">
          <mxGeometry width="50" height="50" relative="1" as="geometry">
            <mxPoint x="680" y="150" as="sourcePoint" />
            <mxPoint x="680.24" y="200" as="targetPoint" />
          </mxGeometry>
        </mxCell>
        <mxCell id="9EJrfdcdq9UjvzJNWAgp-120" value="" style="endArrow=classic;html=1;rounded=0;exitX=0.782;exitY=0.992;exitDx=0;exitDy=0;exitPerimeter=0;strokeWidth=0.5;" edge="1" parent="1" source="9EJrfdcdq9UjvzJNWAgp-117">
          <mxGeometry width="50" height="50" relative="1" as="geometry">
            <mxPoint x="720" y="140" as="sourcePoint" />
            <mxPoint x="720" y="200" as="targetPoint" />
          </mxGeometry>
        </mxCell>
        <mxCell id="9EJrfdcdq9UjvzJNWAgp-122" value="" style="endArrow=none;html=1;rounded=0;" edge="1" parent="1">
          <mxGeometry width="50" height="50" relative="1" as="geometry">
            <mxPoint x="390.74" y="119.41" as="sourcePoint" />
            <mxPoint x="520" y="320" as="targetPoint" />
            <Array as="points">
              <mxPoint x="520" y="120" />
            </Array>
          </mxGeometry>
        </mxCell>
        <mxCell id="9EJrfdcdq9UjvzJNWAgp-125" value="" style="endArrow=none;html=1;rounded=0;" edge="1" parent="1">
          <mxGeometry width="50" height="50" relative="1" as="geometry">
            <mxPoint x="520" y="110" as="sourcePoint" />
            <mxPoint x="570" y="110" as="targetPoint" />
          </mxGeometry>
        </mxCell>
        <mxCell id="9EJrfdcdq9UjvzJNWAgp-126" value="" style="endArrow=none;html=1;rounded=0;entryX=0;entryY=0.7;entryDx=0;entryDy=0;entryPerimeter=0;" edge="1" parent="1" target="9EJrfdcdq9UjvzJNWAgp-95">
          <mxGeometry width="50" height="50" relative="1" as="geometry">
            <mxPoint x="520" y="320" as="sourcePoint" />
            <mxPoint x="540" y="320" as="targetPoint" />
          </mxGeometry>
        </mxCell>
        <mxCell id="9EJrfdcdq9UjvzJNWAgp-128" value="" style="endArrow=none;html=1;rounded=0;" edge="1" parent="1">
          <mxGeometry width="50" height="50" relative="1" as="geometry">
            <mxPoint x="520" y="120" as="sourcePoint" />
            <mxPoint x="520" y="110" as="targetPoint" />
          </mxGeometry>
        </mxCell>
      </root>
    </mxGraphModel>
  </diagram>
</mxfile>
